name rise44.8762peak52.3436fall86.788.mot
datacolumns 19
datarows 36
range 3.76832100000000 3.82665100000000
endheader
time	ground_force1_vx	ground_force1_vy	ground_force1_vz	ground_force1_px	ground_force1_py	ground_force1_pz	ground_force2_vx	ground_force2_vy	ground_force2_vz	ground_force2_px	ground_force2_py	ground_force2_pz	ground_torque1_x	ground_torque1_y	ground_torque1_z	ground_torque2_x	ground_torque2_y	ground_torque2_z	
3.76832100000000	7.75287800000000	692.88964699999997	36.00841800000000	0.18432100000000	0.00000000000000	0.09068500000000	0.00000000000000	0.00000000000000	0.00000000000000	0.00000000000000	0.00000000000000	0.00000000000000	0.00000000000000	11.96132300000000	0.00000000000000	0.00000000000000	0.00000000000000	0.00000000000000	
3.76998200000000	7.34208300000000	692.83417999999995	36.07147000000000	0.18364500000000	0.00000000000000	0.09067100000000	0.00000000000000	0.00000000000000	0.00000000000000	0.00000000000000	0.00000000000000	0.00000000000000	0.00000000000000	12.05706000000000	0.00000000000000	0.00000000000000	0.00000000000000	0.00000000000000	
3.77165500000000	6.92307100000000	692.85704899999996	36.13713500000000	0.18294300000000	0.00000000000000	0.09066000000000	0.00000000000000	0.00000000000000	0.00000000000000	0.00000000000000	0.00000000000000	0.00000000000000	0.00000000000000	12.15528300000000	0.00000000000000	0.00000000000000	0.00000000000000	0.00000000000000	
3.77331300000000	6.49554700000000	692.95682699999998	36.20478200000000	0.18221300000000	0.00000000000000	0.09065100000000	0.00000000000000	0.00000000000000	0.00000000000000	0.00000000000000	0.00000000000000	0.00000000000000	0.00000000000000	12.25576100000000	0.00000000000000	0.00000000000000	0.00000000000000	0.00000000000000	
3.77498800000000	6.05927400000000	693.13204299999995	36.27378700000000	0.18145400000000	0.00000000000000	0.09064400000000	0.00000000000000	0.00000000000000	0.00000000000000	0.00000000000000	0.00000000000000	0.00000000000000	0.00000000000000	12.35826200000000	0.00000000000000	0.00000000000000	0.00000000000000	0.00000000000000	
3.77664800000000	5.61407100000000	693.38119300000005	36.34354100000000	0.18066600000000	0.00000000000000	0.09064000000000	0.00000000000000	0.00000000000000	0.00000000000000	0.00000000000000	0.00000000000000	0.00000000000000	0.00000000000000	12.46255800000000	0.00000000000000	0.00000000000000	0.00000000000000	0.00000000000000	
3.77832500000000	5.15981100000000	693.70273799999995	36.41344700000000	0.17984900000000	0.00000000000000	0.09063700000000	0.00000000000000	0.00000000000000	0.00000000000000	0.00000000000000	0.00000000000000	0.00000000000000	0.00000000000000	12.56842600000000	0.00000000000000	0.00000000000000	0.00000000000000	0.00000000000000	
3.77998300000000	4.69642700000000	694.09511999999995	36.48293100000000	0.17900300000000	0.00000000000000	0.09063500000000	0.00000000000000	0.00000000000000	0.00000000000000	0.00000000000000	0.00000000000000	0.00000000000000	0.00000000000000	12.67564600000000	0.00000000000000	0.00000000000000	0.00000000000000	0.00000000000000	
3.78165400000000	4.22390600000000	694.55675699999995	36.55143800000000	0.17812800000000	0.00000000000000	0.09063600000000	0.00000000000000	0.00000000000000	0.00000000000000	0.00000000000000	0.00000000000000	0.00000000000000	0.00000000000000	12.78400300000000	0.00000000000000	0.00000000000000	0.00000000000000	0.00000000000000	
3.78331500000000	3.74229400000000	695.08605799999998	36.61843500000000	0.17722400000000	0.00000000000000	0.09063800000000	0.00000000000000	0.00000000000000	0.00000000000000	0.00000000000000	0.00000000000000	0.00000000000000	0.00000000000000	12.89329000000000	0.00000000000000	0.00000000000000	0.00000000000000	0.00000000000000	
3.78498400000000	3.25169000000000	695.68142100000000	36.68341600000000	0.17629300000000	0.00000000000000	0.09064100000000	0.00000000000000	0.00000000000000	0.00000000000000	0.00000000000000	0.00000000000000	0.00000000000000	0.00000000000000	13.00330500000000	0.00000000000000	0.00000000000000	0.00000000000000	0.00000000000000	
3.78665500000000	2.75225100000000	696.34123799999998	36.74590300000000	0.17533400000000	0.00000000000000	0.09064600000000	0.00000000000000	0.00000000000000	0.00000000000000	0.00000000000000	0.00000000000000	0.00000000000000	0.00000000000000	13.11385100000000	0.00000000000000	0.00000000000000	0.00000000000000	0.00000000000000	
3.78831800000000	2.24418300000000	697.06390299999998	36.80544800000000	0.17434900000000	0.00000000000000	0.09065200000000	0.00000000000000	0.00000000000000	0.00000000000000	0.00000000000000	0.00000000000000	0.00000000000000	0.00000000000000	13.22474000000000	0.00000000000000	0.00000000000000	0.00000000000000	0.00000000000000	
3.78998300000000	1.72774800000000	697.84780999999998	36.86163400000000	0.17333900000000	0.00000000000000	0.09065800000000	0.00000000000000	0.00000000000000	0.00000000000000	0.00000000000000	0.00000000000000	0.00000000000000	0.00000000000000	13.33579000000000	0.00000000000000	0.00000000000000	0.00000000000000	0.00000000000000	
3.79165200000000	1.20325500000000	698.69135900000003	36.91407900000000	0.17230600000000	0.00000000000000	0.09066600000000	0.00000000000000	0.00000000000000	0.00000000000000	0.00000000000000	0.00000000000000	0.00000000000000	0.00000000000000	13.44682800000000	0.00000000000000	0.00000000000000	0.00000000000000	0.00000000000000	
3.79332000000000	0.67106200000000	699.59295899999995	36.96243600000000	0.17125100000000	0.00000000000000	0.09067400000000	0.00000000000000	0.00000000000000	0.00000000000000	0.00000000000000	0.00000000000000	0.00000000000000	0.00000000000000	13.55768700000000	0.00000000000000	0.00000000000000	0.00000000000000	0.00000000000000	
3.79498200000000	0.13157100000000	700.55102799999997	37.00639500000000	0.17017400000000	0.00000000000000	0.09068200000000	0.00000000000000	0.00000000000000	0.00000000000000	0.00000000000000	0.00000000000000	0.00000000000000	0.00000000000000	13.66820800000000	0.00000000000000	0.00000000000000	0.00000000000000	0.00000000000000	
3.79664600000000	-0.41476900000000	701.56399499999998	37.04568300000000	0.16907900000000	0.00000000000000	0.09069000000000	0.00000000000000	0.00000000000000	0.00000000000000	0.00000000000000	0.00000000000000	0.00000000000000	0.00000000000000	13.77823900000000	0.00000000000000	0.00000000000000	0.00000000000000	0.00000000000000	
3.79831900000000	-0.96747400000000	702.63030200000003	37.08006900000000	0.16796700000000	0.00000000000000	0.09069900000000	0.00000000000000	0.00000000000000	0.00000000000000	0.00000000000000	0.00000000000000	0.00000000000000	0.00000000000000	13.88763700000000	0.00000000000000	0.00000000000000	0.00000000000000	0.00000000000000	
3.79998100000000	-1.52601900000000	703.74840600000005	37.10936000000000	0.16684000000000	0.00000000000000	0.09070700000000	0.00000000000000	0.00000000000000	0.00000000000000	0.00000000000000	0.00000000000000	0.00000000000000	0.00000000000000	13.99626400000000	0.00000000000000	0.00000000000000	0.00000000000000	0.00000000000000	
3.80165500000000	-2.08984600000000	704.91677600000003	37.13340600000000	0.16569900000000	0.00000000000000	0.09071600000000	0.00000000000000	0.00000000000000	0.00000000000000	0.00000000000000	0.00000000000000	0.00000000000000	0.00000000000000	14.10399200000000	0.00000000000000	0.00000000000000	0.00000000000000	0.00000000000000	
3.80331500000000	-2.65836600000000	706.13389800000004	37.15209800000000	0.16454700000000	0.00000000000000	0.09072300000000	0.00000000000000	0.00000000000000	0.00000000000000	0.00000000000000	0.00000000000000	0.00000000000000	0.00000000000000	14.21069800000000	0.00000000000000	0.00000000000000	0.00000000000000	0.00000000000000	
3.80498800000000	-3.23096200000000	707.39827100000002	37.16537000000000	0.16338500000000	0.00000000000000	0.09073100000000	0.00000000000000	0.00000000000000	0.00000000000000	0.00000000000000	0.00000000000000	0.00000000000000	0.00000000000000	14.31626500000000	0.00000000000000	0.00000000000000	0.00000000000000	0.00000000000000	
3.80665200000000	-3.80699300000000	708.70840699999997	37.17319700000000	0.16221500000000	0.00000000000000	0.09073700000000	0.00000000000000	0.00000000000000	0.00000000000000	0.00000000000000	0.00000000000000	0.00000000000000	0.00000000000000	14.42058500000000	0.00000000000000	0.00000000000000	0.00000000000000	0.00000000000000	
3.80831900000000	-4.38579600000000	710.06283099999996	37.17559800000000	0.16104100000000	0.00000000000000	0.09074300000000	0.00000000000000	0.00000000000000	0.00000000000000	0.00000000000000	0.00000000000000	0.00000000000000	0.00000000000000	14.52355200000000	0.00000000000000	0.00000000000000	0.00000000000000	0.00000000000000	
3.80998600000000	-4.96669100000000	711.46008099999995	37.17263500000000	0.15986200000000	0.00000000000000	0.09074700000000	0.00000000000000	0.00000000000000	0.00000000000000	0.00000000000000	0.00000000000000	0.00000000000000	0.00000000000000	14.62507000000000	0.00000000000000	0.00000000000000	0.00000000000000	0.00000000000000	
3.81165500000000	-5.54898500000000	712.89870499999995	37.16441100000000	0.15868200000000	0.00000000000000	0.09075100000000	0.00000000000000	0.00000000000000	0.00000000000000	0.00000000000000	0.00000000000000	0.00000000000000	0.00000000000000	14.72504400000000	0.00000000000000	0.00000000000000	0.00000000000000	0.00000000000000	
3.81332000000000	-6.13197600000000	714.37725999999998	37.15107100000000	0.15750200000000	0.00000000000000	0.09075300000000	0.00000000000000	0.00000000000000	0.00000000000000	0.00000000000000	0.00000000000000	0.00000000000000	0.00000000000000	14.82338900000000	0.00000000000000	0.00000000000000	0.00000000000000	0.00000000000000	
3.81498400000000	-6.71495200000000	715.89430900000002	37.13280200000000	0.15632400000000	0.00000000000000	0.09075500000000	0.00000000000000	0.00000000000000	0.00000000000000	0.00000000000000	0.00000000000000	0.00000000000000	0.00000000000000	14.92001900000000	0.00000000000000	0.00000000000000	0.00000000000000	0.00000000000000	
3.81665400000000	-7.29720200000000	717.44842200000005	37.10983000000000	0.15515000000000	0.00000000000000	0.09075400000000	0.00000000000000	0.00000000000000	0.00000000000000	0.00000000000000	0.00000000000000	0.00000000000000	0.00000000000000	15.01485800000000	0.00000000000000	0.00000000000000	0.00000000000000	0.00000000000000	
3.81832200000000	-7.87801500000000	719.03817000000004	37.08241900000000	0.15398100000000	0.00000000000000	0.09075300000000	0.00000000000000	0.00000000000000	0.00000000000000	0.00000000000000	0.00000000000000	0.00000000000000	0.00000000000000	15.10782900000000	0.00000000000000	0.00000000000000	0.00000000000000	0.00000000000000	
3.81998300000000	-8.45668200000000	720.66212599999994	37.05087400000000	0.15281900000000	0.00000000000000	0.09075000000000	0.00000000000000	0.00000000000000	0.00000000000000	0.00000000000000	0.00000000000000	0.00000000000000	0.00000000000000	15.19886400000000	0.00000000000000	0.00000000000000	0.00000000000000	0.00000000000000	
3.82165500000000	-9.03250600000000	722.31886199999997	37.01553400000000	0.15166500000000	0.00000000000000	0.09074500000000	0.00000000000000	0.00000000000000	0.00000000000000	0.00000000000000	0.00000000000000	0.00000000000000	0.00000000000000	15.28789400000000	0.00000000000000	0.00000000000000	0.00000000000000	0.00000000000000	
3.82331900000000	-9.60479800000000	724.00694399999998	36.97677200000000	0.15052100000000	0.00000000000000	0.09073900000000	0.00000000000000	0.00000000000000	0.00000000000000	0.00000000000000	0.00000000000000	0.00000000000000	0.00000000000000	15.37485700000000	0.00000000000000	0.00000000000000	0.00000000000000	0.00000000000000	
3.82498500000000	-10.17288600000000	725.72493099999997	36.93499600000000	0.14938800000000	0.00000000000000	0.09073200000000	0.00000000000000	0.00000000000000	0.00000000000000	0.00000000000000	0.00000000000000	0.00000000000000	0.00000000000000	15.45969200000000	0.00000000000000	0.00000000000000	0.00000000000000	0.00000000000000	
3.82665100000000	-10.73611600000000	727.47137399999997	36.89064400000000	0.14826700000000	0.00000000000000	0.09072200000000	0.00000000000000	0.00000000000000	0.00000000000000	0.00000000000000	0.00000000000000	0.00000000000000	0.00000000000000	15.54234300000000	0.00000000000000	0.00000000000000	0.00000000000000	0.00000000000000	
